REM DIRINDEX 1\2,1\3,1\4
REM DIRNAME folder01,folder02,folder03,folder04
TITLE ""
FILE "024 024_TOEFL_3900.mp3" MP3
  TRACK 01 AUDIO
    TITLE "2:cjc151_1019"
    INDEX 01 00:00:00
  TRACK 02 AUDIO
    TITLE "0:"
    INDEX 01 00:01:50
  TRACK 03 AUDIO
    TITLE "3:cjc151_1020"
    INDEX 01 00:03:29
  TRACK 04 AUDIO
    TITLE "0:"
    INDEX 01 00:07:31
  TRACK 05 AUDIO
    TITLE "2:cjc151_1021"
    INDEX 01 00:09:14
  TRACK 06 AUDIO
    TITLE "0:"
    INDEX 01 00:10:18
  TRACK 07 AUDIO
    TITLE "3:cjc151_1022"
    INDEX 01 00:11:72
  TRACK 08 AUDIO
    TITLE "0:"
    INDEX 01 00:15:48
  TRACK 09 AUDIO
    TITLE "2:cjc151_1023"
    INDEX 01 00:17:25
  TRACK 10 AUDIO
    TITLE "0:"
    INDEX 01 00:18:35
  TRACK 11 AUDIO
    TITLE "3:cjc151_1024"
    INDEX 01 00:20:14
  TRACK 12 AUDIO
    TITLE "0:"
    INDEX 01 00:23:51
  TRACK 13 AUDIO
    TITLE "2:cjc151_1025"
    INDEX 01 00:25:31
  TRACK 14 AUDIO
    TITLE "0:"
    INDEX 01 00:26:42
  TRACK 15 AUDIO
    TITLE "3:cjc151_1026"
    INDEX 01 00:28:21
  TRACK 16 AUDIO
    TITLE "0:"
    INDEX 01 00:32:09
  TRACK 17 AUDIO
    TITLE "2:cjc151_1027"
    INDEX 01 00:33:62
  TRACK 18 AUDIO
    TITLE "0:"
    INDEX 01 00:34:59
  TRACK 19 AUDIO
    TITLE "3:cjc151_1028"
    INDEX 01 00:36:38
  TRACK 20 AUDIO
    TITLE "0:"
    INDEX 01 00:39:58
  TRACK 21 AUDIO
    TITLE "2:cjc151_1029"
    INDEX 01 00:41:42
  TRACK 22 AUDIO
    TITLE "0:"
    INDEX 01 00:42:65
  TRACK 23 AUDIO
    TITLE "3:cjc151_1030"
    INDEX 01 00:44:44
  TRACK 24 AUDIO
    TITLE "0:"
    INDEX 01 00:48:55
  TRACK 25 AUDIO
    TITLE "2:cjc151_1031"
    INDEX 01 00:50:37
  TRACK 26 AUDIO
    TITLE "0:"
    INDEX 01 00:51:46
  TRACK 27 AUDIO
    TITLE "3:cjc151_1032"
    INDEX 01 00:53:23
  TRACK 28 AUDIO
    TITLE "0:"
    INDEX 01 00:57:17
  TRACK 29 AUDIO
    TITLE "2:cjc151_1033"
    INDEX 01 00:58:71
  TRACK 30 AUDIO
    TITLE "0:"
    INDEX 01 01:00:17
  TRACK 31 AUDIO
    TITLE "3:cjc151_1034"
    INDEX 01 01:01:72
  TRACK 32 AUDIO
    TITLE "0:"
    INDEX 01 01:05:64
  TRACK 33 AUDIO
    TITLE "2:cjc151_1035"
    INDEX 01 01:07:41
  TRACK 34 AUDIO
    TITLE "0:"
    INDEX 01 01:08:58
  TRACK 35 AUDIO
    TITLE "3:cjc151_1036"
    INDEX 01 01:10:35
  TRACK 36 AUDIO
    TITLE "0:"
    INDEX 01 01:14:51
  TRACK 37 AUDIO
    TITLE "2:cjc151_1037"
    INDEX 01 01:16:32
  TRACK 38 AUDIO
    TITLE "0:"
    INDEX 01 01:17:41
  TRACK 39 AUDIO
    TITLE "3:cjc151_1038"
    INDEX 01 01:19:21
  TRACK 40 AUDIO
    TITLE "0:"
    INDEX 01 01:22:58
  TRACK 41 AUDIO
    TITLE "2:cjc151_1039"
    INDEX 01 01:24:41
  TRACK 42 AUDIO
    TITLE "0:"
    INDEX 01 01:25:47
  TRACK 43 AUDIO
    TITLE "3:cjc151_1040"
    INDEX 01 01:27:26
  TRACK 44 AUDIO
    TITLE "0:"
    INDEX 01 01:31:69
  TRACK 45 AUDIO
    TITLE "2:cjc151_1041"
    INDEX 01 01:33:46
  TRACK 46 AUDIO
    TITLE "0:"
    INDEX 01 01:34:59
  TRACK 47 AUDIO
    TITLE "3:cjc151_1042"
    INDEX 01 01:36:39
  TRACK 48 AUDIO
    TITLE "0:"
    INDEX 01 01:40:64
  TRACK 49 AUDIO
    TITLE "2:cjc151_1043"
    INDEX 01 01:42:43
  TRACK 50 AUDIO
    TITLE "0:"
    INDEX 01 01:43:62
  TRACK 51 AUDIO
    TITLE "3:cjc151_1044"
    INDEX 01 01:45:44
  TRACK 52 AUDIO
    TITLE "0:"
    INDEX 01 01:49:53
  TRACK 53 AUDIO
    TITLE "2:cjc151_1045"
    INDEX 01 01:51:27
  TRACK 54 AUDIO
    TITLE "0:"
    INDEX 01 01:54:21
  TRACK 55 AUDIO
    TITLE "3:cjc151_1046"
    INDEX 01 01:56:00
  TRACK 56 AUDIO
    TITLE "0:"
    INDEX 01 01:59:46
  TRACK 57 AUDIO
    TITLE "2:cjc151_1047"
    INDEX 01 02:01:25
  TRACK 58 AUDIO
    TITLE "0:"
    INDEX 01 02:02:34
  TRACK 59 AUDIO
    TITLE "3:cjc151_1048"
    INDEX 01 02:04:13
  TRACK 60 AUDIO
    TITLE "0:"
    INDEX 01 02:08:25
  TRACK 61 AUDIO
    TITLE "2:cjc151_1049"
    INDEX 01 02:10:06
  TRACK 62 AUDIO
    TITLE "0:"
    INDEX 01 02:11:21
  TRACK 63 AUDIO
    TITLE "3:cjc151_1050"
    INDEX 01 02:13:01
  TRACK 64 AUDIO
    TITLE "0:"
    INDEX 01 02:16:44
  TRACK 65 AUDIO
    TITLE "2:cjc151_1051"
    INDEX 01 02:18:23
  TRACK 66 AUDIO
    TITLE "0:"
    INDEX 01 02:19:25
  TRACK 67 AUDIO
    TITLE "3:cjc151_1052"
    INDEX 01 02:21:06
  TRACK 68 AUDIO
    TITLE "0:"
    INDEX 01 02:25:12
  TRACK 69 AUDIO
    TITLE "2:cjc151_1053"
    INDEX 01 02:26:66
  TRACK 70 AUDIO
    TITLE "0:"
    INDEX 01 02:28:02
  TRACK 71 AUDIO
    TITLE "3:cjc151_1054"
    INDEX 01 02:29:57
  TRACK 72 AUDIO
    TITLE "0:"
    INDEX 01 02:33:68
  TRACK 73 AUDIO
    TITLE "2:cjc151_1055"
    INDEX 01 02:35:47
  TRACK 74 AUDIO
    TITLE "0:"
    INDEX 01 02:36:64
  TRACK 75 AUDIO
    TITLE "3:cjc151_1056"
    INDEX 01 02:38:44
  TRACK 76 AUDIO
    TITLE "0:"
    INDEX 01 02:43:45
  TRACK 77 AUDIO
    TITLE "2:cjc151_1057"
    INDEX 01 02:45:22
  TRACK 78 AUDIO
    TITLE "0:"
    INDEX 01 02:46:35
  TRACK 79 AUDIO
    TITLE "3:cjc151_1058"
    INDEX 01 02:48:15
  TRACK 80 AUDIO
    TITLE "0:"
    INDEX 01 02:51:42
  TRACK 81 AUDIO
    TITLE "2:cjc151_1059"
    INDEX 01 02:53:20
  TRACK 82 AUDIO
    TITLE "0:"
    INDEX 01 02:54:43
  TRACK 83 AUDIO
    TITLE "3:cjc151_1060"
    INDEX 01 02:56:24
  TRACK 84 AUDIO
    TITLE "0:"
    INDEX 01 03:00:36
  TRACK 85 AUDIO
    TITLE "2:cjc151_1061"
    INDEX 01 03:02:17
  TRACK 86 AUDIO
    TITLE "0:"
    INDEX 01 03:03:32
  TRACK 87 AUDIO
    TITLE "3:cjc151_1062"
    INDEX 01 03:05:11
  TRACK 88 AUDIO
    TITLE "0:"
    INDEX 01 03:08:15
